<svg xmlns="http://www.w3.org/2000/svg" xmlns:xlink="http://www.w3.org/1999/xlink" preserveAspectRatio="xMidYMid" width="33.375" height="48.312" viewBox="0 0 33.375 48.312">
  <defs>
    <style>
      .cls-1 {
        fill: #fff;
        fill-rule: evenodd;
      }
    </style>
  </defs>
  <path d="M33.383,20.297 C33.383,20.262 33.383,20.227 33.383,20.193 L33.381,20.168 L33.381,20.155 L33.352,19.569 L33.121,14.823 C33.035,13.616 32.135,12.714 30.928,12.629 L26.176,12.398 L25.584,12.369 C25.526,12.367 25.483,12.368 25.453,12.368 C25.328,12.368 25.203,12.377 25.076,12.383 C25.110,12.046 25.131,11.707 25.131,11.361 C25.131,9.090 24.422,6.993 23.221,5.341 L23.223,5.340 C22.942,4.955 22.631,4.593 22.299,4.261 C22.278,4.241 22.248,4.210 22.205,4.169 L21.766,3.772 L18.242,0.575 C17.328,-0.218 16.055,-0.217 15.141,0.575 L11.621,3.768 L11.188,4.162 L11.178,4.170 L11.158,4.188 C11.135,4.213 11.110,4.236 11.084,4.261 C10.754,4.591 10.444,4.954 10.158,5.344 C8.961,6.993 8.252,9.090 8.252,11.362 C8.252,11.707 8.274,12.046 8.305,12.383 C8.180,12.377 8.055,12.368 7.930,12.368 C7.899,12.368 7.856,12.367 7.797,12.369 L7.207,12.398 L2.453,12.629 C1.248,12.714 0.348,13.616 0.262,14.823 L0.031,19.569 L0.002,20.155 L0.002,20.168 L0.000,20.193 C0.000,20.227 0.000,20.262 0.000,20.297 C0.000,20.765 0.037,21.240 0.112,21.717 C0.311,22.973 0.768,24.218 1.473,25.366 C0.787,25.737 0.322,26.424 0.262,27.270 L0.031,32.016 L0.002,32.602 L0.002,32.615 L0.000,32.640 C0.000,32.675 0.000,32.710 0.000,32.745 C0.000,33.213 0.037,33.687 0.112,34.165 C0.430,36.178 1.412,38.163 3.018,39.768 C4.623,41.375 6.610,42.357 8.627,42.674 C9.104,42.750 9.576,42.785 10.043,42.785 L10.096,42.789 L10.778,42.754 L15.166,42.541 L15.166,46.778 C15.166,47.620 15.850,48.302 16.692,48.302 C17.533,48.302 18.215,47.620 18.215,46.778 L18.215,42.541 L22.606,42.754 L23.287,42.789 L23.338,42.785 C23.807,42.785 24.279,42.750 24.756,42.674 C26.774,42.357 28.758,41.375 30.364,39.768 C31.971,38.163 32.953,36.178 33.272,34.165 C33.346,33.687 33.383,33.213 33.383,32.745 C33.383,32.710 33.383,32.675 33.383,32.640 L33.381,32.615 L33.381,32.602 L33.352,32.016 L33.121,27.270 C33.061,26.424 32.596,25.737 31.910,25.366 C32.615,24.218 33.072,22.973 33.272,21.717 C33.346,21.240 33.383,20.765 33.383,20.297 ZM12.215,6.838 C12.420,6.555 12.641,6.297 12.881,6.058 C12.891,6.047 12.903,6.037 12.912,6.028 L13.328,5.649 L16.692,2.598 L20.061,5.653 L20.485,6.038 C20.471,6.026 20.483,6.037 20.504,6.057 C20.740,6.297 20.963,6.556 21.168,6.836 C22.045,8.042 22.590,9.621 22.590,11.362 C22.590,11.883 22.537,12.388 22.444,12.875 C20.994,13.365 19.610,14.206 18.430,15.385 C17.727,16.087 17.153,16.865 16.692,17.683 C16.231,16.865 15.655,16.087 14.951,15.385 C13.774,14.206 12.389,13.366 10.938,12.875 C10.846,12.389 10.793,11.884 10.793,11.363 C10.791,9.622 11.338,8.042 12.215,6.838 ZM2.541,20.254 L2.569,19.691 L2.789,15.157 L7.330,14.934 L7.903,14.907 C7.885,14.908 7.901,14.907 7.930,14.907 C8.248,14.908 8.571,14.933 8.895,14.981 C8.914,14.984 8.932,14.985 8.951,14.988 C10.424,15.220 11.926,15.951 13.156,17.182 C14.162,18.186 14.828,19.373 15.166,20.575 L15.166,28.061 C15.096,27.985 15.028,27.908 14.951,27.834 C14.862,27.742 14.766,27.661 14.672,27.573 C13.117,26.125 11.248,25.226 9.346,24.926 L9.346,24.925 C8.873,24.851 8.401,24.815 7.930,24.816 C7.899,24.816 7.856,24.815 7.797,24.817 L7.207,24.846 L4.324,24.986 C3.389,23.869 2.821,22.584 2.621,21.320 C2.567,20.975 2.541,20.636 2.541,20.297 L2.541,20.254 ZM10.653,40.218 L10.102,40.245 L10.065,40.245 C10.053,40.246 10.049,40.246 10.049,40.246 C9.709,40.246 9.362,40.219 9.018,40.167 C7.547,39.935 6.045,39.205 4.815,37.973 C3.584,36.742 2.854,35.239 2.621,33.767 C2.567,33.422 2.541,33.085 2.541,32.745 L2.541,32.702 L2.569,32.139 L2.789,27.604 L3.297,27.579 L7.330,27.382 L7.682,27.366 L7.903,27.354 C7.885,27.356 7.901,27.354 7.930,27.354 C8.266,27.356 8.608,27.382 8.951,27.435 C9.397,27.505 9.844,27.627 10.285,27.788 C11.307,28.161 12.297,28.770 13.156,29.630 C13.330,29.804 13.492,29.984 13.645,30.168 C14.381,31.044 14.885,32.023 15.166,33.014 L15.166,39.997 L10.653,40.218 ZM30.842,32.745 C30.842,33.085 30.817,33.422 30.762,33.767 C30.529,35.239 29.799,36.742 28.567,37.973 C27.336,39.205 25.836,39.935 24.363,40.167 C24.020,40.219 23.674,40.246 23.334,40.246 C23.334,40.246 23.330,40.246 23.319,40.245 L23.281,40.245 L22.729,40.218 L18.215,39.997 L18.215,33.014 C18.496,32.023 19.002,31.044 19.737,30.168 C19.891,29.984 20.053,29.804 20.227,29.630 C21.086,28.770 22.076,28.161 23.098,27.788 C23.539,27.627 23.986,27.505 24.432,27.435 C24.774,27.382 25.115,27.356 25.453,27.354 C25.483,27.354 25.498,27.356 25.481,27.354 L25.701,27.366 L26.051,27.382 L30.084,27.579 L30.594,27.604 L30.815,32.139 L30.842,32.702 L30.842,32.745 ZM30.842,20.297 C30.842,20.636 30.817,20.975 30.762,21.320 C30.563,22.584 29.992,23.869 29.057,24.986 L26.176,24.846 L25.584,24.817 C25.526,24.815 25.483,24.816 25.453,24.816 C24.983,24.815 24.508,24.851 24.037,24.925 L24.037,24.926 C22.133,25.226 20.264,26.125 18.711,27.573 C18.617,27.661 18.522,27.742 18.430,27.834 C18.356,27.908 18.285,27.985 18.215,28.061 L18.215,20.575 C18.553,19.373 19.221,18.186 20.227,17.182 C21.457,15.951 22.957,15.220 24.432,14.988 C24.451,14.985 24.469,14.984 24.489,14.981 C24.813,14.933 25.135,14.908 25.453,14.907 C25.483,14.907 25.498,14.908 25.481,14.907 L26.051,14.934 L30.594,15.157 L30.815,19.691 L30.842,20.254 L30.842,20.297 Z" class="cls-1"/>
</svg>
